<?xml version="1.0" encoding="utf-8"?><!DOCTYPE svg PUBLIC "-//W3C//DTD SVG 1.1//EN" "http://www.w3.org/Graphics/SVG/1.1/DTD/svg11.dtd"><svg version="1.1" xmlns="http://www.w3.org/2000/svg" xmlns:xlink="http://www.w3.org/1999/xlink" x="0px" y="0px" viewBox="0 0 100 124.28875" enable-background="new 0 0 100 99.431" xml:space="preserve"><polygon fill="#010101" points="94.503,52.084 94.503,47.347 100,49.639 "/><polygon fill="#010101" points="52.653,5.497 47.916,5.497 50.21,0 "/><polygon fill="#010101" points="32.483,71.71 28.786,68.013 34.869,65.516 "/><polygon fill="#010101" points="72.441,67.355 68.421,71.374 65.705,64.762 "/><polygon fill="#010101" points="68.582,28.219 72.279,31.916 66.2,34.414 "/><polygon fill="#010101" points="79.764,47.601 79.764,50.935 75.896,49.319 "/><polygon fill="#010101" points="52.399,79.195 49.066,79.195 50.68,75.328 "/><polygon fill="#010101" points="20.804,51.83 20.804,48.498 24.671,50.112 "/><polygon fill="#010101" points="48.169,20.236 51.501,20.236 49.888,24.104 "/><polygon fill="#010101" points="83.645,20.543 79.95,16.847 86.03,14.347 "/><polygon fill="#010101" points="21.111,16.356 17.414,20.047 14.916,13.971 "/><polygon fill="#010101" points="16.922,78.889 20.618,82.585 14.54,85.084 "/><polygon fill="#010101" points="79.458,83.076 83.153,79.384 85.653,85.461 "/><polygon fill="#010101" points="27.62,32.584 31.318,28.887 33.816,34.967 "/><polygon fill="#010101" points="6.064,47.102 6.064,52.33 0,49.798 "/><polygon fill="#010101" points="47.917,93.935 52.653,93.935 50.358,99.431 "/><path fill="#010101" d="M39.139,11.39c1.17,0.47,2.203,0.851,3.159,1.182c2.876-2.715,5.679-3.109,7.05-3.109
	c0.282,0,0.472,0.018,0.495,0.021l0.439,0.036c0.083,0,8.28,0.097,11.831,8.38c4.015,9.369,7.104,13.076,16.057,17.95
	c0.159-0.419,0.31-0.826,0.486-1.263c0.591-1.481,0.829-2.864,0.849-4.118c-6.873-3.893-9.129-6.888-12.47-14.68
	C62.413,4.997,52.128,4.218,50.489,4.164c-0.24-0.028-0.63-0.061-1.144-0.061c-2.423,0-7.807,0.74-12.534,6.504
	C37.594,10.83,38.37,11.084,39.139,11.39z"/><path fill="#010101" d="M15.299,30.498c1.141-0.488,2.157-0.944,3.089-1.395c0.151-5.165,2.995-7.416,3.138-7.523l0.327-0.275
	c0.033-0.035,3.654-3.505,9.051-3.505c1.73,0,3.496,0.356,5.248,1.054c4.975,1.991,8.948,3.225,13.374,3.225
	c3.297,0,6.683-0.697,10.677-1.878c-0.186-0.416-0.366-0.81-0.552-1.245c-0.637-1.478-1.453-2.611-2.332-3.514
	c-3.27,0.9-5.624,1.277-7.792,1.277c-3.123,0-6.209-0.77-11.383-2.84c-2.388-0.957-4.825-1.438-7.238-1.438
	c-7.051,0-11.799,4.098-12.687,4.925c-1.077,0.859-5.964,5.313-5.096,14.201C13.807,31.188,14.527,30.829,15.299,30.498z"/><path fill="#010101" d="M11.96,60.862c0.465-1.162,0.846-2.193,1.187-3.173c-3.535-3.758-3.119-7.357-3.097-7.534l0.036-0.44
	c0-0.083,0.097-8.281,8.38-11.83c9.369-4.013,13.074-7.102,17.95-16.053c-0.418-0.159-0.832-0.316-1.262-0.489
	c-1.387-0.553-2.769-0.837-4.112-0.859c-3.896,6.88-6.892,9.136-14.686,12.478C5.545,37.597,4.783,47.916,4.731,49.521
	c-0.154,1.373-0.454,7.981,6.451,13.651C11.4,62.414,11.646,61.647,11.96,60.862z"/><path fill="#010101" d="M31.067,84.699c-0.492-1.147-0.953-2.16-1.406-3.099c-5.163-0.162-7.439-3.029-7.512-3.128l-0.287-0.337
	c-0.058-0.06-5.786-5.922-2.438-14.29c3.784-9.464,4.22-14.265,1.339-24.042c-0.406,0.183-0.81,0.363-1.24,0.543
	c-1.474,0.632-2.607,1.446-3.508,2.326c2.101,7.604,1.578,11.314-1.568,19.181c-4.377,10.934,2.405,18.772,3.493,19.932
	c0.797,0.99,4.62,5.2,12.146,5.2c0.67,0,1.353-0.036,2.046-0.107C31.755,86.199,31.398,85.474,31.067,84.699z"/><path fill="#010101" d="M61.428,88.041c-1.162-0.466-2.198-0.854-3.154-1.186c-2.875,2.721-5.684,3.114-7.057,3.114
	c-0.282,0-0.472-0.018-0.497-0.021l-0.438-0.037c-0.083,0-8.279-0.097-11.83-8.38c-4.013-9.369-7.102-13.075-16.052-17.948
	c-0.159,0.416-0.314,0.824-0.487,1.258c-0.595,1.485-0.828,2.869-0.841,4.123c6.865,3.892,9.121,6.887,12.458,14.675
	c4.625,10.793,14.907,11.571,16.549,11.626c0.239,0.027,0.63,0.062,1.146,0.062c2.424,0,7.807-0.743,12.531-6.506
	C62.975,88.602,62.198,88.349,61.428,88.041z"/><path fill="#010101" d="M89.387,36.263c-0.217,0.754-0.466,1.525-0.78,2.308c-0.458,1.148-0.853,2.19-1.193,3.165
	c3.547,3.76,3.128,7.365,3.104,7.542l-0.037,0.439c0,0.083-0.097,8.28-8.38,11.829c-9.369,4.014-13.072,7.102-17.951,16.052
	c0.419,0.159,0.83,0.317,1.259,0.489c1.39,0.556,2.774,0.84,4.117,0.86c3.895-6.88,6.891-9.135,14.685-12.477
	c10.812-4.634,11.573-14.95,11.625-16.557C95.991,48.538,96.292,41.929,89.387,36.263z"/><path fill="#010101" d="M70.9,17.829c5.166,0.159,7.445,3.029,7.519,3.127l0.288,0.338c0.058,0.059,5.787,5.921,2.439,14.288
	c-3.787,9.463-4.222,14.266-1.34,24.045c0.405-0.185,0.809-0.363,1.237-0.546c1.474-0.632,2.609-1.444,3.51-2.324
	c-2.102-7.606-1.578-11.317,1.568-19.181c4.375-10.937-2.405-18.773-3.494-19.932c-0.796-0.991-4.619-5.203-12.146-5.203
	c-0.67,0-1.354,0.039-2.046,0.107c0.377,0.686,0.739,1.411,1.069,2.186C69.992,15.873,70.45,16.896,70.9,17.829z"/><path fill="#010101" d="M85.268,68.934c-1.143,0.489-2.156,0.947-3.088,1.398c-0.152,5.164-2.994,7.412-3.14,7.52l-0.326,0.274
	c-0.034,0.035-3.654,3.506-9.051,3.506c-1.73,0-3.493-0.357-5.25-1.058c-4.976-1.987-8.948-3.222-13.372-3.222
	c-3.295,0-6.681,0.696-10.668,1.877c0.181,0.408,0.363,0.816,0.544,1.247c0.63,1.472,1.438,2.618,2.317,3.518
	c3.274-0.902,5.636-1.281,7.807-1.281c3.122,0,6.209,0.77,11.384,2.84c2.387,0.956,4.825,1.439,7.236,1.439h0.003
	c7.051,0,11.798-4.099,12.686-4.926c1.075-0.859,5.967-5.316,5.096-14.21C86.757,68.234,86.045,68.602,85.268,68.934z"/><text x="0" y="114.431" fill="#000000" font-size="5px" font-weight="bold" font-family="'Helvetica Neue', Helvetica, Arial-Unicode, Arial, Sans-serif">Created by Bruno Gätjens González</text><text x="0" y="119.431" fill="#000000" font-size="5px" font-weight="bold" font-family="'Helvetica Neue', Helvetica, Arial-Unicode, Arial, Sans-serif">from the Noun Project</text></svg>